# AST/ASF file generated using VICON BodyLanguage
# -----------------------------------------------
:version 1.10
:name VICON
:units
  mass 1.0
  length 0.45
  angle deg
:documentation
   .ast/.asf automatically generated from VICON data using
   VICON BodyBuilder and BodyLanguage model FoxedUp or BRILLIANT.MOD
:root
   order TX TY TZ RX RY RZ
   axis XYZ
   position 0 0 0  
   orientation 0 0 0 
:bonedata
  begin
     id 1 
     name lhipjoint
     direction 0.711131 -0.61297 0.344326 
     length 2.29162 
     axis 0 0 0  XYZ
  end
  begin
     id 2 
     name lfemur
     direction 0.34202 -0.939693 0  
     length 6.71424  
     axis 0 0 20  XYZ
    dof rx ry rz
    limits (-160.0 20.0)
           (-70.0 70.0)
           (-60.0 70.0)
  end
  begin
     id 3 
     name ltibia
     direction 0.34202 -0.939693 0   
     length 6.7087   
     axis 0 0 20   XYZ
    dof rx
    limits (-10.0 170.0)
  end
  begin
     id 4 
     name lfoot
     direction 0.0230374 -0.0632947 0.997729   
     length 1.56743   
     axis -90 7.62852e-016 20   XYZ
    dof rx rz
    limits (-45.0 90.0)
           (-70.0 20.0)
  end
  begin
     id 5 
     name ltoes
     direction 1.53585e-011 -4.21885e-011 1   
     length 0.802914   
     axis -90 7.62852e-016 20   XYZ
    dof rx
    limits (-90.0 20.0)
  end
  begin
     id 6 
     name rhipjoint
     direction -0.733192 -0.592884 0.333043   
     length 2.36925  
     axis 0 0 0  XYZ 
  end
  begin
     id 7 
     name rfemur
     direction -0.34202 -0.939693 0   
     length 6.67027   
     axis 0 0 -20   XYZ
    dof rx ry rz
    limits (-160.0 20.0)
           (-70.0 70.0)
           (-70.0 60.0)
  end
  begin
     id 8 
     name rtibia
     direction -0.34202 -0.939693 0   
     length 6.6862   
     axis 0 0 -20   XYZ
    dof rx
    limits (-10.0 170.0)
 end
 begin
     id 9 
     name rfoot
     direction -0.0949739 -0.260939 0.960672   
     length 1.67698  
     axis -90 -7.62852e-016 -20   XYZ
    dof rx rz
    limits (-45.0 90.0)
           (-20.0 70.0)
  end
  begin
     id 10 
     name rtoes
     direction -1.5353e-011 -4.21868e-011 1   
     length 0.846298   
     axis -90 -7.62852e-016 -20   XYZ
    dof rx
    limits (-90.0 20.0)
  end
  begin
     id 11 
     name lowerback
     direction -0.0206828 0.999785 -0.00109866   
     length 2.04382   
     axis 0 0 0   XYZ
    dof rx ry rz
    limits (-20.0 45.0)
           (-30.0 30.0)
           (-30.0 30.0)
  end
  begin
     id 12 
     name upperback
     direction -0.0105003 0.999727 -0.0208904   
     length 2.04538   
     axis 0 0 0   XYZ
    dof rx ry rz
    limits (-20.0 45.0)
           (-30.0 30.0)
           (-30.0 30.0)
  end
  begin
     id 13 
     name thorax
     direction -0.000416255 0.999808 -0.0196023   
     length 2.0399   
     axis 0 0 0   XYZ
    dof rx ry rz
    limits (-20.0 45.0)
           (-30.0 30.0)
           (-30.0 30.0)
  end
  begin
     id 14 
     name lowerneck
     direction 0.0627861 0.989205 0.13241   
     length 1.46207   
     axis 0 0 0   XYZ
    dof rx ry rz
    limits (-20.0 45.0)
           (-30.0 30.0)
           (-30.0 30.0)
  end
  begin
     id 15 
     name upperneck
     direction 0.00627179 0.994526 0.104303   
     length 1.41419   
     axis 0 0 0   XYZ
    dof rx ry rz
    limits (-20.0 45.0)
           (-30.0 30.0)
           (-30.0 30.0)
  end
  begin
     id 16
     name head
     direction -0.00443838 0.999688 0.0245968  
     length 1.50718  
     axis 0 0 0   XYZ
    dof rx ry rz
    limits (-20.0 45.0)
           (-30.0 30.0)
           (-30.0 30.0)
  end
  begin
     id 17 
     name lclavicle
     direction 0.758742 0.650995 -0.0227258  
     length 2.86888  
     axis 0 0 0   XYZ
    dof ry rz
    limits (-20.0 10.0)
           (0.0 20.0)
  end
  begin
     id 18 
     name lhumerus
     direction 1 -4.48962e-011 1.06664e-027   
     length 4.65776   
     axis -180 -30 -90   XYZ
    dof rx ry rz
    limits (-60.0 90.0)
           (-90.0 90.0)
           (-90.0 90.0)
  end
  begin
     id 19
     name lradius
     direction 1 -4.48968e-011 1.40404e-026   
     length 3.55539   
     axis -180 -30 -90   XYZ
    dof rx
    limits (-10.0 170.0)
  end
  begin
     id 20
     name lwrist
     direction 1 -4.48976e-011 3.32647e-026   
     length 1.77769   
     axis -2.20186e-014 90 90   XYZ
    dof ry
    limits (-180.0 0.0)
 end
  begin
     id 21 
     name lhand
     direction 1 -4.48982e-011 6.65293e-026   
     length 0.707264   
     axis -4.24514e-014 90 90   XYZ
    dof rx rz
    limits (-90.0 90.0)
           (-45.0 45.0)
  end
  begin
     id 22 
     name lfingers
     direction 1 -4.48966e-011 1.33059e-025   
     length 0.570215   
     axis -8.49028e-014 90 90   XYZ
    dof rx
    limits (0.0 90.0)
  end
  begin
     id 23
     name lthumb
     direction 0.707107 -6.3493e-011 0.707107   
     length 0.818718   
     axis -90 45 2.85299e-015   XYZ
    dof rx rz
    limits (-45.0 45.0)
           (-45.0 45.0)
  end
  begin
     id 24 
     name rclavicle
     direction -0.870343 0.482028 -0.100759   
     length 3.2251  
     axis 0 0 0   XYZ 
    dof ry rz
    limits (-10.0 20.0)
           (-20.0 0.0)
  end
  begin
     id 25 
     name rhumerus
     direction -1 -4.48974e-011 -9.45849e-028  
     length 4.71925   
     axis -180 30 90   XYZ
    dof rx ry rz
    limits (-90.0 60.0)
           (-90.0 90.0)
           (-90.0 90.0)
  end
  begin
     id 26 
     name rradius
     direction -1 -4.48965e-011 1.17607e-026   
     length 3.5699   
     axis -180 30 90   XYZ
    dof rx
    limits (-10.0 170.0)
  end
  begin
     id 27 
     name rwrist
     direction -1 -4.48968e-011 3.32647e-026   
     length 1.78495   
     axis -2.20186e-014 -90 -90   XYZ
    dof ry
    limits (-180.0 0.0)
  end
  begin
     id 28
     name rhand
     direction -1 -4.48995e-011 6.65293e-026   
     length 0.507757   
     axis -4.24514e-014 -90 -90   XYZ
    dof rx rz
    limits (-90.0 90.0)
           (-45.0 45.0)
  end
  begin
     id 29
     name rfingers
     direction -1 -4.48864e-011 1.33059e-025   
     length 0.409367   
     axis -8.49028e-014 -90 -90   XYZ
    dof rx
    limits (0.0 90.0)
  end
  begin
     id 30
     name rthumb
     direction -0.707107 -6.3494e-011 0.707107   
     length 0.587771   
     axis -90 -45 -2.85299e-015   XYZ
    dof rx rz
    limits (-45.0 45.0)
           (-45.0 45.0)
  end
:hierarchy
  begin
    root lhipjoint rhipjoint lowerback
    lhipjoint lfemur
    lfemur ltibia
    ltibia lfoot
    lfoot ltoes
    rhipjoint rfemur
    rfemur rtibia
    rtibia rfoot
    rfoot rtoes
    lowerback upperback
    upperback thorax
    thorax lowerneck lclavicle rclavicle
    lowerneck upperneck
    upperneck head
    lclavicle lhumerus
    lhumerus lradius
    lradius lwrist
    lwrist lhand lthumb
    lhand lfingers
    rclavicle rhumerus
    rhumerus rradius
    rradius rwrist
    rwrist rhand rthumb
    rhand rfingers
  end

#!OML:ASF E:\Steps\Project 1\Capture day 1\Session 2\Subject.ASF
:FULLY-SPECIFIED
:DEGREES
16
root 9.30282 16.3783 8.76452 -152.952 -0.613222 179.116
lowerback -28.1699 -1.09722 -6.63881
upperback -2.36461 -0.0169277 -0.725283
thorax 12.9958 -0.678904 2.9205
lowerneck 0.121837 0.123904 -4.02791
upperneck 8.85319 -0.670228 6.87356
head 2.88303 -0.430203 2.95665
rclavicle -4.87022e-015 4.01545e-014
rhumerus -33.915 -19.1802 -80.3315
rradius 27.759
rwrist 4.41298
rhand -11.4415 -51.2419
rfingers 7.12502
rthumb 14.5952 -80.7083
lclavicle -4.87022e-015 4.01545e-014
lhumerus -27.7158 6.47722 81.7221
lradius 17.8582
lwrist -11.3052
lhand -23.1211 -12.3434
lfingers 7.12502
lthumb 3.3262 17.6104
rfemur -26.2207 9.55305 14.9223
rtibia 9.46628
rfoot -19.8402 -8.22641
rtoes -29.307
lfemur -27.0442 -10.5596 -17.0138
ltibia 9.54048
lfoot -8.04275 5.01326
ltoes -43.4806
17
root 9.30274 16.3785 8.76423 -152.959 -0.635466 179.141
lowerback -28.1401 -1.10044 -6.61326
upperback -2.3875 -0.0367816 -0.710728
thorax 12.9549 -0.686098 2.91516
lowerneck 0.134611 0.136618 -4.03109
upperneck 8.84765 -0.652541 6.86847
head 2.8776 -0.421913 2.95568
rclavicle 1.19271e-015 -1.59028e-014
rhumerus -33.9132 -19.0702 -80.3887
rradius 27.8811
rwrist 4.37727
rhand -11.289 -51.5475
rfingers 7.12502
rthumb 14.7421 -81.0032
lclavicle 1.19271e-015 -1.59028e-014
lhumerus -27.8069 6.48941 81.7244
lradius 17.9909
lwrist -11.3103
lhand -23.0924 -12.1264
lfingers 7.12502
lthumb 3.3539 17.827
rfemur -26.3318 9.69408 14.919
rtibia 9.72469
rfoot -19.9901 -8.33854
rtoes -28.5926
lfemur -27.0513 -10.6361 -16.9591
ltibia 9.55719
lfoot -8.02834 5.07934
ltoes -43.5464
18
root 9.30408 16.3796 8.76438 -152.969 -0.65827 179.159
lowerback -28.126 -1.10577 -6.61209
upperback -2.37029 -0.041696 -0.70087
thorax 12.9685 -0.687662 2.92421
lowerneck 0.0946149 0.132327 -4.02949
upperneck 8.84338 -0.655292 6.87095
head 2.88382 -0.421675 2.95648
rclavicle 0 5.24792e-014
rhumerus -33.842 -18.9564 -80.4889
rradius 28.0101
rwrist 4.25364
rhand -11.3646 -51.1512
rfingers 7.12502
rthumb 14.6692 -80.6122
lclavicle 0 5.24792e-014
lhumerus -27.7581 6.42336 81.7684
lradius 18.0681
lwrist -11.2278
lhand -23.004 -11.8498
lfingers 7.12502
lthumb 3.43925 18.1022
rfemur -26.1052 9.57488 14.9762
rtibia 9.27422
rfoot -19.7039 -8.16995
rtoes -28.5523
lfemur -27.048 -10.6693 -16.9087
ltibia 9.55342
lfoot -8.07915 5.06799
ltoes -42.6932
19
root 9.30433 16.3799 8.76495 -152.939 -0.630835 179.144
lowerback -28.1277 -1.0842 -6.62458
upperback -2.39296 -0.0121236 -0.726463
thorax 12.9393 -0.674849 2.91297
lowerneck 0.0849256 0.120169 -4.02981
upperneck 8.84667 -0.672103 6.87786
head 2.88792 -0.429625 2.95869
rclavicle 3.97569e-016 -2.82274e-014
rhumerus -33.8185 -18.9108 -80.5562
rradius 28.0693
rwrist 4.18537
rhand -11.3924 -50.6968
rfingers 7.12502
rthumb 14.6425 -80.1598
lclavicle 3.97569e-016 -2.82274e-014
lhumerus -27.7592 6.24491 81.8303
lradius 18.1601
lwrist -11.0298
lhand -22.8532 -11.569
lfingers 7.12502
lthumb 3.5849 18.3806
rfemur -26.3653 9.69586 14.9286
rtibia 9.72851
rfoot -19.861 -8.294
rtoes -28.9299
lfemur -27.0684 -10.536 -16.9557
ltibia 9.53215
lfoot -8.13202 4.95812
ltoes -42.1944
20
root 9.30367 16.3793 8.76394 -152.921 -0.629352 179.161
lowerback -28.147 -1.07514 -6.59459
upperback -2.42422 -0.0162107 -0.720125
thorax 12.9129 -0.676187 2.90125
lowerneck 0.138302 0.127497 -4.05681
upperneck 8.84716 -0.665253 6.88205
head 2.87803 -0.428734 2.96492
rclavicle 1.59028e-015 -7.15625e-015
rhumerus -33.8302 -18.8833 -80.5616
rradius 28.0755
rwrist 4.20083
rhand -11.2053 -50.7439
rfingers 7.12502
rthumb 14.8227 -80.1938
lclavicle 1.59028e-015 -7.15625e-015
lhumerus -27.8509 6.21457 81.8637
lradius 18.2847
lwrist -11.1177
lhand -22.8971 -11.5523
lfingers 7.12502
lthumb 3.54242 18.398
rfemur -26.3237 9.67521 14.9401
rtibia 9.60046
rfoot -19.8342 -8.19474
rtoes -28.7524
lfemur -27.0831 -10.475 -16.9604
ltibia 9.54078
lfoot -8.06283 4.96689
ltoes -42.9408
21
root 9.30373 16.3788 8.76304 -152.933 -0.664606 179.198
lowerback -28.2064 -1.0871 -6.57864
upperback -2.38523 -0.0291687 -0.679338
thorax 12.9921 -0.683068 2.93423
lowerneck 0.154148 0.133323 -4.06872
upperneck 8.83673 -0.656748 6.8833
head 2.87113 -0.425064 2.96749
rclavicle 1.08338e-014 -2.62396e-014
rhumerus -33.7004 -18.9667 -80.5407
rradius 28.0249
rwrist 4.25598
rhand -11.1987 -51.6264
rfingers 7.12502
rthumb 14.8291 -81.0758
lclavicle 1.08338e-014 -2.62396e-014
lhumerus -27.8025 6.28078 81.9121
lradius 18.3549
lwrist -11.403
lhand -23.144 -11.7752
lfingers 7.12502
lthumb 3.30401 18.1789
rfemur -26.2871 9.69588 14.9849
rtibia 9.56404
rfoot -19.8744 -8.23643
rtoes -28.9803
lfemur -27.0974 -10.5553 -16.896
ltibia 9.59875
lfoot -8.06366 5.0589
ltoes -43.4795
22
root 9.30438 16.379 8.76485 -152.926 -0.671476 179.218
lowerback -28.2555 -1.08453 -6.57942
upperback -2.33706 -0.0135407 -0.668478
thorax 13.0739 -0.676912 2.95328
lowerneck 0.118272 0.126573 -4.04724
upperneck 8.8292 -0.663327 6.88371
head 2.87547 -0.426289 2.96364
rclavicle 3.27995e-015 -9.54166e-015
rhumerus -33.5577 -18.8599 -80.6511
rradius 28.0834
rwrist 4.00234
rhand -11.3634 -53.1049
rfingers 7.12502
rthumb 14.6704 -82.5659
lclavicle 3.27995e-015 -9.54166e-015
lhumerus -27.6641 6.19238 82.0024
lradius 18.4162
lwrist -11.288
lhand -23.2316 -11.8232
lfingers 7.12502
lthumb 3.21942 18.1322
rfemur -26.3115 9.6604 15.0329
rtibia 9.57293
rfoot -19.8213 -8.31366
rtoes -29.4534
lfemur -27.1453 -10.4934 -16.878
ltibia 9.66472
lfoot -8.1131 4.97209
ltoes -43.3823
